# xmcd
#
# Track frame offsets:
#	182
#	11727
#	21792
#	32377
#	43385
#	51757
#	59487
#	69882
#	82107
#	95710
#	106790
#	117855
#	127677
#	136847
#	145895
#	156625
#	168772
#	179630
#	188662
#	200615
#	210300
#	221130
#	231772
#	240510
#
# Disc length: 3323 seconds
#
# Revision: 0
# Processed by: cddbd v1.4PL0 Copyright (c) Steve Scherf et al.
# Submitted via: EasyCDDAExtractor 5.0.4.1
#
DISCID=510cf918
DTITLE=Various Artist - Country Music Originals Vol. 4
DYEAR=1900
DGENRE=Country
TTITLE0=Cash, Johnny - Big River
TTITLE1=Cash, Johnny - Ballad of a Teenage Queen
TTITLE2=Clement, Jack - Ten Years
TTITLE3=Clement, Jack - Your Lover Boy
TTITLE4=Cash, Johnny - Guess Things Happen That Way
TTITLE5=Cash, Johnny - Come In Stranger
TTITLE6=Cash, Johnny - The Ways of a Woman in Love
TTITLE7=Cash, Johnny - You're the Nearest Thing to Heaven
TTITLE8=Chaffin, Ernie - Born to Lose
TTITLE9=Chaffin, Ernie - My Love for You
TTITLE10=Cash, Johnny - I Just Thought You'd Like to Know
TTITLE11=Cash, Johnny - It's Just About Time
TTITLE12=Clement, Jack - The Black Haired Man
TTITLE13=Clement, Jack - Wrong
TTITLE14=Smith, Warren - Sweet Sweet Girl
TTITLE15=Smith, Warren - Goodbye Mr. Love
TTITLE16=Wheeler, Onie - Jump Right out of This Jukebox
TTITLE17=Wheeler, Onie - Tell 'Em Off
TTITLE18=Cash, Johnny - Thanks a Lot
TTITLE19=Cash, Johnny - Luther Played the Boogie
TTITLE20=Chaffin, Ernie - Don't Ever Leave Me
TTITLE21=Chaffin, Ernie - Miracle of You
TTITLE22=Cash, Johnny - I Forgot to Remember to Forget
TTITLE23=Cash, Johnny - Katy Too
EXTD=
EXTT0=
EXTT1=
EXTT2=
EXTT3=
EXTT4=
EXTT5=
EXTT6=
EXTT7=
EXTT8=
EXTT9=
EXTT10=
EXTT11=
EXTT12=
EXTT13=
EXTT14=
EXTT15=
EXTT16=
EXTT17=
EXTT18=
EXTT19=
EXTT20=
EXTT21=
EXTT22=
EXTT23=
PLAYORDER=
